<svg xmlns="http://www.w3.org/2000/svg" viewBox="0 0 630.38 67.78"><defs><style>.cls-1{fill:#36a9e1;}.cls-2{fill:#f39200;}.cls-3{fill:#fff;}</style></defs><g id="Layer_2" data-name="Layer 2"><g id="Lag_1" data-name="Lag 1"><rect class="cls-1" width="13.29" height="61.53"/><rect class="cls-1" x="74.81" width="13.29" height="61.53"/><rect class="cls-1" x="119.89" y="-24.12" width="13.29" height="61.53" transform="translate(133.17 -119.89) rotate(90)"/><polygon class="cls-1" points="35.02 30.64 65.67 0 46.88 0 16.33 30.55 16.42 30.64 16.33 30.74 46.88 61.29 65.67 61.29 35.02 30.64"/><rect class="cls-1" x="119.89" y="18.9" width="13.29" height="42.53"/><polygon class="cls-1" points="181.83 0.12 163.05 0.12 224.34 61.41 243.12 61.41 181.83 0.12"/><polygon class="cls-1" points="196.75 42.58 183.47 29.3 165.8 29.3 165.8 42.58 196.75 42.58"/><polygon class="cls-2" points="237.15 30.77 267.8 0.12 249.01 0.12 218.45 30.67 218.55 30.77 218.45 30.86 249.01 61.41 267.8 61.41 237.15 30.77"/><path class="cls-3" d="M271,24V22.73l2.46-.2v-19L271,3.37V2h6.74V3.37l-2.46.2v19l2.46.2V24Zm4-6.12-.89-1.36,11.66-13,0-.08-2.13-.09V2h6.19V3.37l-1.89.17ZM284.23,24V22.73l2.16-.11,0-.05-7.23-9.94,1.18-1.33,8.3,11.24,1.9.19V24Z"/><path class="cls-3" d="M299.43,24.36a6.89,6.89,0,0,1-3.83-1.05,7,7,0,0,1-2.52-2.92,9.71,9.71,0,0,1-.9-4.27v-.5a9.66,9.66,0,0,1,.9-4.26,7,7,0,0,1,2.52-2.91,7.38,7.38,0,0,1,7.62,0,7.06,7.06,0,0,1,2.52,2.9,9.68,9.68,0,0,1,.9,4.27v.5a9.72,9.72,0,0,1-.9,4.28,7,7,0,0,1-2.52,2.91A6.85,6.85,0,0,1,299.43,24.36Zm0-1.51a4.77,4.77,0,0,0,2.89-.89,5.83,5.83,0,0,0,1.86-2.42,8.72,8.72,0,0,0,.65-3.42v-.5a8.69,8.69,0,0,0-.65-3.4,5.74,5.74,0,0,0-1.87-2.41,5.2,5.2,0,0,0-5.82,0,5.64,5.64,0,0,0-1.86,2.41,8.88,8.88,0,0,0-.64,3.4v.5a8.83,8.83,0,0,0,.64,3.42A5.67,5.67,0,0,0,296.49,22,4.86,4.86,0,0,0,299.43,22.85Z"/><path class="cls-3" d="M309.27,24V22.73l2.46-.2V9.22L309.27,9V7.69h4.08l.15,2.8a5.61,5.61,0,0,1,2.08-2.28,5.82,5.82,0,0,1,3.15-.82,5.13,5.13,0,0,1,3.14.93,5.22,5.22,0,0,1,1.8,2.85,6.07,6.07,0,0,1,2.07-2.78,5.51,5.51,0,0,1,3.35-1,4.94,4.94,0,0,1,4,1.75c1,1.16,1.43,3,1.43,5.39v8l2.46.2V24h-6.75V22.71l2.46-.2v-8c0-2-.35-3.46-1.06-4.3a3.69,3.69,0,0,0-3-1.25,4,4,0,0,0-3.27,1.35,6.17,6.17,0,0,0-1.38,3.43v8.82l2.46.2V24h-6.75V22.73l2.46-.2v-8a6.61,6.61,0,0,0-1.08-4.26,3.68,3.68,0,0,0-3-1.27,4.33,4.33,0,0,0-3.1,1.05,5.49,5.49,0,0,0-1.52,2.81v9.72l2.46.2V24Z"/><path class="cls-3" d="M339.17,24V22.73l2.46-.2V9.22L339.17,9V7.69h4.08l.15,2.8a5.61,5.61,0,0,1,2.08-2.28,5.82,5.82,0,0,1,3.15-.82,5.11,5.11,0,0,1,3.14.93,5.12,5.12,0,0,1,1.8,2.85,6.08,6.08,0,0,1,2.08-2.78,5.46,5.46,0,0,1,3.34-1A5,5,0,0,1,363,9.12q1.43,1.74,1.42,5.39v8l2.47.2V24h-6.76V22.71l2.47-.2v-8c0-2-.36-3.46-1.07-4.3a3.69,3.69,0,0,0-2.95-1.25,4.06,4.06,0,0,0-3.28,1.35A6.17,6.17,0,0,0,354,13.71v8.82l2.47.2V24h-6.76V22.73l2.46-.2v-8a6.61,6.61,0,0,0-1.08-4.26,3.68,3.68,0,0,0-3-1.27A4.34,4.34,0,0,0,345,10a5.49,5.49,0,0,0-1.52,2.81v9.72l2.46.2V24Z"/><path class="cls-3" d="M375.74,24.36a4.88,4.88,0,0,1-4-1.75c-.95-1.17-1.43-3-1.43-5.44v-8l-2-.2V7.69h3.83V17.2a7.27,7.27,0,0,0,1,4.3A3.33,3.33,0,0,0,376,22.8a5,5,0,0,0,3.28-1,5,5,0,0,0,1.61-2.62v-10L378.52,9V7.69h4.15V22.53l2.19.2V24h-3.79l-.15-2.69a5.67,5.67,0,0,1-2.06,2.22A6,6,0,0,1,375.74,24.36Z"/><path class="cls-3" d="M387.26,24V22.73l2.47-.2V9.22L387.26,9V7.69h4.07l.15,2.93a5.92,5.92,0,0,1,2.12-2.38,5.71,5.71,0,0,1,3.17-.85A5,5,0,0,1,400.82,9c.92,1.08,1.39,2.77,1.39,5.08v8.43l2.46.2V24h-6.74V22.73l2.46-.2V14.11c0-1.89-.34-3.22-1-4a3.76,3.76,0,0,0-3-1.16,4.43,4.43,0,0,0-3.21,1.13,6,6,0,0,0-1.63,3v9.49l2.46.2V24Z"/><path class="cls-3" d="M412.48,24.36a5.13,5.13,0,0,1-3.64-1.24,4.38,4.38,0,0,1-1.31-3.36,4.26,4.26,0,0,1,.87-2.65,5.69,5.69,0,0,1,2.49-1.77,10.2,10.2,0,0,1,3.81-.64h3.39V12.83A3.91,3.91,0,0,0,417,10a4.24,4.24,0,0,0-3.17-1.08,5.59,5.59,0,0,0-2.14.39,5.82,5.82,0,0,0-1.63,1l-.16,2.49h-1.49V9.34a8,8,0,0,1,2.4-1.43,8.38,8.38,0,0,1,3-.52,6.28,6.28,0,0,1,4.45,1.45,5.26,5.26,0,0,1,1.55,4v7.89q0,.48,0,1c0,.31.06.63.11.94l1.95.08V24h-3.57c-.12-.59-.2-1.07-.25-1.43s-.07-.78-.08-1.23a7,7,0,0,1-2.36,2.15A6.52,6.52,0,0,1,412.48,24.36Zm.21-1.59a6.15,6.15,0,0,0,3.18-.88,5.45,5.45,0,0,0,2.22-2.35V16.09h-3.4a6.37,6.37,0,0,0-3.93,1.08,3.23,3.23,0,0,0-1.42,2.65,2.74,2.74,0,0,0,.91,2.14A3.52,3.52,0,0,0,412.69,22.77Z"/><path class="cls-3" d="M424.22,24V22.73l2.47-.2V2l-2.47-.2V.47h4.28V22.53l2.46.2V24Z"/><path class="cls-3" d="M440.62,24.36a6.72,6.72,0,0,1-3.7-1,6.91,6.91,0,0,1-2.51-2.83,9.07,9.07,0,0,1-.91-4.16v-.83a9.24,9.24,0,0,1,.91-4.18,7.32,7.32,0,0,1,2.45-2.89,6,6,0,0,1,3.46-1.06,6.54,6.54,0,0,1,3.43.86,5.68,5.68,0,0,1,2.19,2.43,8.25,8.25,0,0,1,.77,3.68V15.9H435.37l0,.66a7.7,7.7,0,0,0,.68,3.23A5.3,5.3,0,0,0,437.86,22a4.78,4.78,0,0,0,2.76.82,6.93,6.93,0,0,0,2.71-.5A6.63,6.63,0,0,0,445.39,21l.77,1.24a8,8,0,0,1-2.3,1.5A7.94,7.94,0,0,1,440.62,24.36Zm-5.12-10h9.39v-.46a5.85,5.85,0,0,0-.55-2.58,4.31,4.31,0,0,0-1.57-1.78,4.42,4.42,0,0,0-2.45-.65,4.11,4.11,0,0,0-2.35.7,5.39,5.39,0,0,0-1.7,1.92,7.54,7.54,0,0,0-.81,2.75Z"/><path class="cls-3" d="M457,24V22.73l2.46-.2v-19L457,3.37V2h6.74V3.37l-2.47.2v19l2.47.2V24Z"/><path class="cls-3" d="M471.55,24V22.73l2.46-.2v-19h-6.18l-.2,3.36h-1.48V2h17.52V6.88H482.2L482,3.52h-6.17v19l2.47.2V24Z"/><path class="cls-3" d="M483.86,15.41V13.9h7.24v1.51Z"/><path class="cls-3" d="M509.7,24.36a6.89,6.89,0,0,1-3.83-1.05,7,7,0,0,1-2.52-2.92,9.71,9.71,0,0,1-.9-4.27v-.5a9.66,9.66,0,0,1,.9-4.26,7,7,0,0,1,2.52-2.91,7.36,7.36,0,0,1,7.61,0,7,7,0,0,1,2.53,2.9,9.68,9.68,0,0,1,.9,4.27v.5a9.72,9.72,0,0,1-.9,4.28,7,7,0,0,1-2.53,2.91A6.79,6.79,0,0,1,509.7,24.36Zm0-1.51a4.77,4.77,0,0,0,2.89-.89,5.73,5.73,0,0,0,1.85-2.42,8.55,8.55,0,0,0,.65-3.42v-.5a8.52,8.52,0,0,0-.65-3.4,5.64,5.64,0,0,0-1.86-2.41,5.2,5.2,0,0,0-5.82,0,5.64,5.64,0,0,0-1.86,2.41,8.69,8.69,0,0,0-.64,3.4v.5a8.65,8.65,0,0,0,.64,3.42A5.67,5.67,0,0,0,506.76,22,4.86,4.86,0,0,0,509.7,22.85Z"/><path class="cls-3" d="M526.64,30.64a12.09,12.09,0,0,1-2.53-.28,10.35,10.35,0,0,1-2.32-.77l.48-1.52a9.61,9.61,0,0,0,2.05.73,9.92,9.92,0,0,0,2.29.26,4.32,4.32,0,0,0,3.5-1.39,5.76,5.76,0,0,0,1.17-3.84v-2a5.69,5.69,0,0,1-2.1,1.86,6.26,6.26,0,0,1-3,.67,5.64,5.64,0,0,1-3.37-1,6.41,6.41,0,0,1-2.16-2.8,11,11,0,0,1-.75-4.24V16a12.58,12.58,0,0,1,.75-4.55,6.81,6.81,0,0,1,2.17-3,5.54,5.54,0,0,1,3.39-1.06,5.67,5.67,0,0,1,5.13,2.87l.19-2.57h1.53V23.83a8,8,0,0,1-.76,3.63,5.48,5.48,0,0,1-2.22,2.35A6.78,6.78,0,0,1,526.64,30.64Zm-.09-7.84a5.06,5.06,0,0,0,3-.81,5.17,5.17,0,0,0,1.78-2.24V12.27a6,6,0,0,0-1.7-2.38,4.47,4.47,0,0,0-3-.94,4,4,0,0,0-2.66.89,5.41,5.41,0,0,0-1.62,2.49,11.39,11.39,0,0,0-.54,3.67v.32A8.25,8.25,0,0,0,523,21,4,4,0,0,0,526.55,22.8Zm6.18-13.55-.59-1.56h3.05V9Z"/><path class="cls-3" d="M271,61.17V59.86l2.46-.2v-19L271,40.5V39.17h8.51a8.82,8.82,0,0,1,4.94,1.4,9.56,9.56,0,0,1,3.34,3.84A12.25,12.25,0,0,1,289,50v.37a12.55,12.55,0,0,1-1.19,5.56,9.53,9.53,0,0,1-3.32,3.85,8.7,8.7,0,0,1-4.92,1.4Zm4.28-1.51h4.23a6.74,6.74,0,0,0,4-1.23,8.29,8.29,0,0,0,2.69-3.34,11.11,11.11,0,0,0,1-4.73V50a11.14,11.14,0,0,0-1-4.75,8.23,8.23,0,0,0-2.69-3.3,6.8,6.8,0,0,0-4-1.21h-4.23Z"/><path class="cls-3" d="M291.73,61.17V59.86l2.46-.2V46.35l-2.46-.19V44.83H296V59.66l2.46.2v1.31Zm2.25-21V37.6h2v2.62Z"/><path class="cls-3" d="M308.13,67.78a12.11,12.11,0,0,1-2.52-.29,10.44,10.44,0,0,1-2.33-.77l.49-1.51a9.75,9.75,0,0,0,2.05.72,9.37,9.37,0,0,0,2.28.26,4.32,4.32,0,0,0,3.5-1.38A5.79,5.79,0,0,0,312.77,61V59a5.76,5.76,0,0,1-2.09,1.86,6.37,6.37,0,0,1-3,.66,5.64,5.64,0,0,1-3.37-1,6.28,6.28,0,0,1-2.16-2.8,11,11,0,0,1-.75-4.24v-.31a12.54,12.54,0,0,1,.75-4.55,6.68,6.68,0,0,1,2.17-3,5.47,5.47,0,0,1,3.39-1.07,5.84,5.84,0,0,1,3,.76,5.77,5.77,0,0,1,2.08,2.11l.2-2.56h1.53V61a8,8,0,0,1-.77,3.63A5.48,5.48,0,0,1,311.61,67,7,7,0,0,1,308.13,67.78ZM308,59.94a5.09,5.09,0,0,0,3-.82,5,5,0,0,0,1.77-2.24V49.4A5.82,5.82,0,0,0,311.08,47a4.45,4.45,0,0,0-3-1,4,4,0,0,0-2.66.9,5.5,5.5,0,0,0-1.61,2.48,11.44,11.44,0,0,0-.55,3.68v.31a8.21,8.21,0,0,0,1.21,4.73A4.05,4.05,0,0,0,308,59.94Zm6.18-13.56-.59-1.55h3.06v1.31Z"/><path class="cls-3" d="M318.7,61.17V59.86l2.46-.2V46.35l-2.46-.19V44.83H323V59.66l2.47.2v1.31Zm2.25-21V37.6h2v2.62Z"/><path class="cls-3" d="M334.15,61.46a3.37,3.37,0,0,1-2.67-1.07,5,5,0,0,1-1-3.43V46.29H327.7V44.83h2.83v-4.2h1.81v4.2h3.81v1.46h-3.81V57a3.74,3.74,0,0,0,.58,2.35,1.9,1.9,0,0,0,1.55.72,8.42,8.42,0,0,0,1-.07l1-.15.27,1.3a6.58,6.58,0,0,1-1.24.26A10.7,10.7,0,0,1,334.15,61.46Z"/><path class="cls-3" d="M344.29,61.49a5.09,5.09,0,0,1-3.64-1.24,4.35,4.35,0,0,1-1.31-3.35,4.24,4.24,0,0,1,.87-2.65,5.71,5.71,0,0,1,2.49-1.78,10.41,10.41,0,0,1,3.81-.63h3.39V50a3.89,3.89,0,0,0-1-2.84A4.2,4.2,0,0,0,345.68,46a5.59,5.59,0,0,0-2.14.39,6.29,6.29,0,0,0-1.64,1l-.15,2.5h-1.49V46.47a8.26,8.26,0,0,1,2.4-1.43,8.55,8.55,0,0,1,3-.52A6.28,6.28,0,0,1,350.15,46a5.23,5.23,0,0,1,1.56,4v7.89q0,.48,0,1c0,.32.06.63.11.94l1.95.08v1.31h-3.57c-.12-.59-.2-1.07-.25-1.43s-.07-.77-.08-1.22a7,7,0,0,1-2.36,2.14A6.52,6.52,0,0,1,344.29,61.49Zm.21-1.58a6.16,6.16,0,0,0,3.18-.89,5.45,5.45,0,0,0,2.22-2.35V53.23h-3.4a6.37,6.37,0,0,0-3.93,1.08A3.22,3.22,0,0,0,341.15,57a2.7,2.7,0,0,0,.91,2.13A3.53,3.53,0,0,0,344.5,59.91Z"/><path class="cls-3" d="M356,61.17V59.86l2.47-.2V39.13l-2.47-.2V37.6h4.28V59.66l2.46.2v1.31Z"/><path class="cls-3" d="M365.39,61.17V59.86l2.46-.2V46.35l-2.46-.19V44.83h4.27V59.66l2.46.2v1.31Zm2.25-21V37.6h2v2.62Z"/><path class="cls-3" d="M381.24,61.49A10.58,10.58,0,0,1,378,61a10.43,10.43,0,0,1-2.77-1.34l0-3.35h1.48l.26,2.4a5.43,5.43,0,0,0,1.95,1,8.09,8.09,0,0,0,2.3.31,4.72,4.72,0,0,0,3.12-.9A2.65,2.65,0,0,0,385.44,57a2.68,2.68,0,0,0-1-2,7.56,7.56,0,0,0-3.41-1.43,10.42,10.42,0,0,1-4.24-1.69,3.6,3.6,0,0,1-1.31-2.95,3.89,3.89,0,0,1,.7-2.24,4.75,4.75,0,0,1,2-1.58,7.3,7.3,0,0,1,3-.58,8.73,8.73,0,0,1,3.13.52,7.24,7.24,0,0,1,2.28,1.4l.08,3.36h-1.49L385,47.38a4.91,4.91,0,0,0-1.58-1,6.25,6.25,0,0,0-2.21-.35,4.23,4.23,0,0,0-2.84.85,2.54,2.54,0,0,0-1,2,2.27,2.27,0,0,0,1.51,2.28,12.29,12.29,0,0,0,2.57.83,10.16,10.16,0,0,1,4.44,1.89,3.84,3.84,0,0,1,1.38,3.07,4.09,4.09,0,0,1-1.55,3.28A6.85,6.85,0,0,1,381.24,61.49Z"/><path class="cls-3" d="M397.57,61.49a6.74,6.74,0,0,1-3.7-1,6.91,6.91,0,0,1-2.51-2.83,9,9,0,0,1-.91-4.16v-.83a9.2,9.2,0,0,1,.91-4.17,7.36,7.36,0,0,1,2.45-2.9,6.06,6.06,0,0,1,3.46-1.06,6.54,6.54,0,0,1,3.43.86,5.7,5.7,0,0,1,2.2,2.43,8.42,8.42,0,0,1,.76,3.68V53H392.33l0,.67a7.77,7.77,0,0,0,.67,3.23,5.41,5.41,0,0,0,1.84,2.23,4.71,4.71,0,0,0,2.76.82,6.9,6.9,0,0,0,2.71-.49,6.66,6.66,0,0,0,2.06-1.34l.77,1.24a7.85,7.85,0,0,1-2.3,1.51A8.12,8.12,0,0,1,397.57,61.49Zm-5.12-10h9.4v-.45a5.82,5.82,0,0,0-.56-2.58,4.21,4.21,0,0,0-1.57-1.79,4.5,4.5,0,0,0-2.45-.65,4.06,4.06,0,0,0-2.34.7,5.21,5.21,0,0,0-1.7,1.92,7.17,7.17,0,0,0-.81,2.76Z"/><path class="cls-3" d="M406.45,61.17V59.86l2.47-.2V46.35l-2.47-.19V44.83h4.05l.2,2.49v.44a5.9,5.9,0,0,1,1.89-2.38,4.8,4.8,0,0,1,2.86-.86,6.92,6.92,0,0,1,.87.07,3.42,3.42,0,0,1,.67.15l-.23,1.66-1.67-.11a3.79,3.79,0,0,0-2.84,1,5.46,5.46,0,0,0-1.53,2.76v9.61l2.46.2v1.31Z"/><path class="cls-3" d="M419.07,61.17V59.86l2.46-.2V46.35l-2.46-.19V44.83h4.28V59.66l2.46.2v1.31Zm2.25-21V37.6h2v2.62Z"/><path class="cls-3" d="M428.62,61.17V59.86l2.46-.2V46.35l-2.46-.19V44.83h4.06l.16,2.93A5.86,5.86,0,0,1,435,45.37a5.76,5.76,0,0,1,3.17-.85,5,5,0,0,1,4.05,1.63c.93,1.08,1.39,2.78,1.39,5.08v8.43l2.47.2v1.31h-6.74V59.86l2.46-.2V51.25a6.05,6.05,0,0,0-1-4,3.82,3.82,0,0,0-3-1.16,4.43,4.43,0,0,0-3.2,1.13,6,6,0,0,0-1.63,3v9.49l2.46.2v1.31Z"/><path class="cls-3" d="M455.44,67.78a12,12,0,0,1-2.52-.29,10.27,10.27,0,0,1-2.33-.77l.48-1.51a10.16,10.16,0,0,0,2.05.72,9.4,9.4,0,0,0,2.29.26,4.34,4.34,0,0,0,3.5-1.38A5.79,5.79,0,0,0,460.08,61V59A5.84,5.84,0,0,1,458,60.83a6.37,6.37,0,0,1-3,.66,5.62,5.62,0,0,1-3.37-1,6.21,6.21,0,0,1-2.16-2.8,10.78,10.78,0,0,1-.76-4.24v-.31a12.32,12.32,0,0,1,.76-4.55,6.61,6.61,0,0,1,2.17-3,5.47,5.47,0,0,1,3.39-1.07,5.67,5.67,0,0,1,5.12,2.87l.2-2.56h1.52V61a8,8,0,0,1-.76,3.63A5.54,5.54,0,0,1,458.92,67,7,7,0,0,1,455.44,67.78Zm-.09-7.84a4.79,4.79,0,0,0,4.73-3.06V49.4A5.92,5.92,0,0,0,458.39,47a4.47,4.47,0,0,0-3-1,4,4,0,0,0-2.66.9,5.6,5.6,0,0,0-1.62,2.48,11.45,11.45,0,0,0-.54,3.68v.31a8.29,8.29,0,0,0,1.2,4.73A4.07,4.07,0,0,0,455.35,59.94Zm6.18-13.56-.59-1.55H464v1.31Z"/><path class="cls-3" d="M472.35,61.49a10.29,10.29,0,0,1-6-1.8l0-3.35h1.49l.25,2.4a5.6,5.6,0,0,0,1.95,1,8.14,8.14,0,0,0,2.3.31,4.77,4.77,0,0,0,3.13-.9,2.62,2.62,0,0,0,.11-4.14,7.56,7.56,0,0,0-3.41-1.43,10.48,10.48,0,0,1-4.24-1.69,3.59,3.59,0,0,1-1.3-2.95,3.88,3.88,0,0,1,.69-2.24,4.82,4.82,0,0,1,2-1.58,7.3,7.3,0,0,1,3-.58,8.73,8.73,0,0,1,3.13.52,7.24,7.24,0,0,1,2.28,1.4l.08,3.36h-1.48l-.21-2.42a5.07,5.07,0,0,0-1.59-1A6.25,6.25,0,0,0,472.3,46a4.24,4.24,0,0,0-2.84.85,2.57,2.57,0,0,0-1,2A2.27,2.27,0,0,0,470,51.14a12.5,12.5,0,0,0,2.57.83A10.27,10.27,0,0,1,477,53.86a3.86,3.86,0,0,1,1.37,3.07,4.09,4.09,0,0,1-1.55,3.28A6.85,6.85,0,0,1,472.35,61.49Z"/><path class="cls-3" d="M486.49,61.49a5.09,5.09,0,0,1-3.64-1.24,4.36,4.36,0,0,1-1.32-3.35,4.25,4.25,0,0,1,.88-2.65,5.65,5.65,0,0,1,2.49-1.78,10.41,10.41,0,0,1,3.81-.63h3.39V50a3.89,3.89,0,0,0-1.05-2.84A4.2,4.2,0,0,0,487.88,46a5.55,5.55,0,0,0-2.14.39,6.29,6.29,0,0,0-1.64,1l-.15,2.5h-1.49V46.47a8.26,8.26,0,0,1,2.4-1.43,8.51,8.51,0,0,1,3.05-.52A6.3,6.3,0,0,1,492.35,46a5.23,5.23,0,0,1,1.56,4v7.89q0,.48,0,1c0,.32.06.63.11.94l1.94.08v1.31h-3.56c-.12-.59-.21-1.07-.25-1.43a10.86,10.86,0,0,1-.08-1.22,7,7,0,0,1-2.36,2.14A6.52,6.52,0,0,1,486.49,61.49Zm.21-1.58a6.16,6.16,0,0,0,3.18-.89,5.51,5.51,0,0,0,2.22-2.35V53.23h-3.4a6.35,6.35,0,0,0-3.93,1.08A3.22,3.22,0,0,0,483.35,57a2.73,2.73,0,0,0,.9,2.13A3.55,3.55,0,0,0,486.7,59.91Z"/><path class="cls-3" d="M498.35,61.17V59.86l2.46-.2V46.35l-2.46-.19V44.83h4.07l.15,2.93a5.94,5.94,0,0,1,2.11-2.39,5.77,5.77,0,0,1,3.18-.85,5,5,0,0,1,4.05,1.63,7.74,7.74,0,0,1,1.39,5.08v8.43l2.46.2v1.31H509V59.86l2.46-.2V51.25a6.05,6.05,0,0,0-1-4,3.82,3.82,0,0,0-3-1.16,4.45,4.45,0,0,0-3.2,1.13,6,6,0,0,0-1.63,3v9.49l2.46.2v1.31Z"/><path class="cls-3" d="M524.76,61.49a10.56,10.56,0,0,1-3.19-.46,10.43,10.43,0,0,1-2.77-1.34l0-3.35h1.48l.26,2.4a5.43,5.43,0,0,0,2,1,8.07,8.07,0,0,0,2.29.31,4.75,4.75,0,0,0,3.13-.9A2.64,2.64,0,0,0,529,57a2.68,2.68,0,0,0-1-2,7.46,7.46,0,0,0-3.4-1.43,10.36,10.36,0,0,1-4.24-1.69,3.6,3.6,0,0,1-1.31-2.95,3.81,3.81,0,0,1,.7-2.24,4.75,4.75,0,0,1,2-1.58,7.3,7.3,0,0,1,3-.58,8.73,8.73,0,0,1,3.13.52,7.48,7.48,0,0,1,2.28,1.4l.07,3.36h-1.48l-.21-2.42a4.85,4.85,0,0,0-1.59-1,6.19,6.19,0,0,0-2.2-.35,4.23,4.23,0,0,0-2.84.85,2.6,2.6,0,0,0-.69,3.28,2.65,2.65,0,0,0,1.19,1A12.42,12.42,0,0,0,525,52a10.22,10.22,0,0,1,4.44,1.89,3.84,3.84,0,0,1,1.38,3.07,4.09,4.09,0,0,1-1.55,3.28A6.86,6.86,0,0,1,524.76,61.49Z"/><path class="cls-3" d="M540.84,61.17,534.9,46.26l-1.74-.1V44.83h5.76v1.33l-2.14.13L541,57.08l.6,1.8h.09l.65-1.8,4.1-10.79-2.18-.13V44.83H550v1.33l-1.77.1-5.79,14.91Z"/><path class="cls-3" d="M556.57,61.49a5.07,5.07,0,0,1-3.64-1.24,4.36,4.36,0,0,1-1.32-3.35,4.25,4.25,0,0,1,.88-2.65A5.65,5.65,0,0,1,555,52.47a10.41,10.41,0,0,1,3.81-.63h3.39V50a3.89,3.89,0,0,0-1-2.84A4.2,4.2,0,0,0,558,46a5.55,5.55,0,0,0-2.14.39,6.29,6.29,0,0,0-1.64,1l-.15,2.5h-1.49V46.47a8.26,8.26,0,0,1,2.4-1.43,8.51,8.51,0,0,1,3-.52A6.31,6.31,0,0,1,562.43,46,5.23,5.23,0,0,1,564,50v7.89q0,.48,0,1c0,.32.06.63.1.94l2,.08v1.31h-3.56c-.12-.59-.21-1.07-.25-1.43a10.86,10.86,0,0,1-.08-1.22,7,7,0,0,1-2.36,2.14A6.52,6.52,0,0,1,556.57,61.49Zm.21-1.58A6.16,6.16,0,0,0,560,59a5.51,5.51,0,0,0,2.22-2.35V53.23h-3.4a6.33,6.33,0,0,0-3.93,1.08A3.22,3.22,0,0,0,553.43,57a2.73,2.73,0,0,0,.9,2.13A3.55,3.55,0,0,0,556.78,59.91Z"/><path class="cls-3" d="M568.42,61.17V59.86l2.46-.2V46.35l-2.46-.19V44.83h4.05l.19,2.49,0,.44a5.73,5.73,0,0,1,1.89-2.38,4.74,4.74,0,0,1,2.85-.86,6.92,6.92,0,0,1,.87.07,3.25,3.25,0,0,1,.67.15l-.22,1.66-1.68-.11a3.79,3.79,0,0,0-2.84,1,5.46,5.46,0,0,0-1.53,2.76v9.61l2.47.2v1.31Z"/><path class="cls-3" d="M580.66,61.17V59.86l2.46-.2V39.13l-2.46-.2V37.6h4.27V59.66l2.46.2v1.31Z"/><path class="cls-3" d="M590,61.17V59.86l2.46-.2V46.35L590,46.16V44.83h4.27V59.66l2.47.2v1.31Zm2.25-21V37.6h2v2.62Z"/><path class="cls-3" d="M606.42,67.78a12.13,12.13,0,0,1-2.53-.29,10.35,10.35,0,0,1-2.32-.77l.48-1.51a10.16,10.16,0,0,0,2.05.72,9.4,9.4,0,0,0,2.29.26,4.35,4.35,0,0,0,3.5-1.38A5.79,5.79,0,0,0,611.06,61V59a5.87,5.87,0,0,1-2.1,1.86,6.37,6.37,0,0,1-3,.66,5.64,5.64,0,0,1-3.37-1,6.35,6.35,0,0,1-2.16-2.8,11,11,0,0,1-.75-4.24v-.31a12.54,12.54,0,0,1,.75-4.55,6.76,6.76,0,0,1,2.17-3A5.49,5.49,0,0,1,606,44.52a5.67,5.67,0,0,1,5.13,2.87l.19-2.56h1.53V61a8,8,0,0,1-.76,3.63A5.5,5.5,0,0,1,609.89,67,6.88,6.88,0,0,1,606.42,67.78Zm-.09-7.84a4.79,4.79,0,0,0,4.73-3.06V49.4a5.94,5.94,0,0,0-1.7-2.37,4.43,4.43,0,0,0-3-1,4,4,0,0,0-2.66.9,5.43,5.43,0,0,0-1.62,2.48,11.45,11.45,0,0,0-.54,3.68v.31a8.29,8.29,0,0,0,1.2,4.73A4.07,4.07,0,0,0,606.33,59.94Zm6.18-13.56-.59-1.55H615v1.31Z"/><path class="cls-3" d="M624.29,61.49a6.74,6.74,0,0,1-3.7-1,7,7,0,0,1-2.51-2.83,9.16,9.16,0,0,1-.9-4.16v-.83a9.33,9.33,0,0,1,.9-4.17,7.46,7.46,0,0,1,2.46-2.9A6,6,0,0,1,624,44.52a6.58,6.58,0,0,1,3.44.86,5.74,5.74,0,0,1,2.19,2.43,8.28,8.28,0,0,1,.76,3.68V53H619.05l0,.67a7.77,7.77,0,0,0,.67,3.23,5.41,5.41,0,0,0,1.84,2.23,4.75,4.75,0,0,0,2.76.82,6.9,6.9,0,0,0,2.71-.49,6.71,6.71,0,0,0,2.07-1.34l.77,1.24a7.9,7.9,0,0,1-2.31,1.51A8.12,8.12,0,0,1,624.29,61.49Zm-5.12-10h9.4v-.45a6,6,0,0,0-.55-2.58,4.28,4.28,0,0,0-1.57-1.79,4.51,4.51,0,0,0-2.46-.65,4.06,4.06,0,0,0-2.34.7,5.29,5.29,0,0,0-1.7,1.92,7.17,7.17,0,0,0-.81,2.76Z"/></g></g></svg>