<?xml version="1.0" encoding="utf-8"?>
<svg version="1.1" id="Lag_1" x="0px" y="0px" viewBox="215.337 241.795 409.021 71.289" style="enable-background:new 0 0 841.9 595.3;" xmlns="http://www.w3.org/2000/svg">
  <style type="text/css">
	.st0{fill:#36A9E1;}
	.st1{fill:#F39200;}
</style>
  <rect x="220" y="245.5" class="st0" width="13.3" height="61.5"/>
  <rect x="294.8" y="245.5" class="st0" width="13.3" height="61.5"/>
  <rect x="339.9" y="221.4" transform="matrix(-1.836970e-16 1 -1 -1.836970e-16 598.727 -94.3687)" class="st0" width="13.3" height="61.5"/>
  <polygon class="st0" points="255,276.2 285.7,245.5 266.9,245.5 236.3,276.1 236.4,276.2 236.3,276.3 266.9,306.8 285.7,306.8 "/>
  <rect x="339.9" y="264.4" class="st0" width="13.3" height="42.5"/>
  <g>
    <polygon class="st0" points="401.8,245.7 383.1,245.7 444.4,306.9 463.1,306.9 &#9;"/>
  </g>
  <g>
    <polygon class="st0" points="416.8,288.1 403.5,274.8 385.8,274.8 385.8,288.1 &#9;"/>
  </g>
  <polygon class="st1" points="587.8,276.3 618.5,245.6 599.7,245.6 569.1,276.2 569.2,276.3 569.1,276.4 599.7,306.9 618.5,306.9 "/>
  <g>
    <path d="M469.8,294.7v-0.4l0.8-0.1v-6.1l-0.8-0.1v-0.4h2.2v0.4l-0.8,0.1v6.1l0.8,0.1v0.4H469.8z M471.1,292.7l-0.3-0.4l3.8-4.2l0,0 l-0.7,0v-0.4h2v0.4l-0.6,0.1L471.1,292.7z M474.1,294.7v-0.4l0.7,0l0,0l-2.3-3.2l0.4-0.4l2.7,3.6l0.6,0.1v0.4H474.1z"/>
    <path d="M479,294.8c-0.5,0-0.9-0.1-1.2-0.3s-0.6-0.5-0.8-0.9s-0.3-0.9-0.3-1.4V292c0-0.5,0.1-1,0.3-1.4s0.5-0.7,0.8-0.9 s0.8-0.3,1.2-0.3c0.5,0,0.9,0.1,1.2,0.3s0.6,0.5,0.8,0.9s0.3,0.9,0.3,1.4v0.2c0,0.5-0.1,1-0.3,1.4s-0.5,0.7-0.8,0.9 S479.5,294.8,479,294.8z M479,294.3c0.4,0,0.7-0.1,0.9-0.3s0.5-0.5,0.6-0.8s0.2-0.7,0.2-1.1V292c0-0.4-0.1-0.8-0.2-1.1 s-0.3-0.6-0.6-0.8s-0.6-0.3-0.9-0.3s-0.7,0.1-0.9,0.3s-0.5,0.5-0.6,0.8s-0.2,0.7-0.2,1.1v0.2c0,0.4,0.1,0.8,0.2,1.1 s0.3,0.6,0.6,0.8S478.7,294.3,479,294.3z"/>
    <path d="M482.2,294.7v-0.4l0.8-0.1v-4.3l-0.8-0.1v-0.4h1.3l0,0.9c0.2-0.3,0.4-0.6,0.7-0.7s0.6-0.3,1-0.3c0.4,0,0.7,0.1,1,0.3 s0.5,0.5,0.6,0.9c0.1-0.4,0.4-0.7,0.7-0.9s0.7-0.3,1.1-0.3c0.6,0,1,0.2,1.3,0.6s0.5,1,0.5,1.7v2.6l0.8,0.1v0.4H489v-0.4l0.8-0.1 v-2.6c0-0.7-0.1-1.1-0.3-1.4s-0.5-0.4-1-0.4c-0.5,0-0.8,0.1-1.1,0.4s-0.4,0.7-0.4,1.1v2.9l0.8,0.1v0.4h-2.2v-0.4l0.8-0.1v-2.6 c0-0.6-0.1-1.1-0.3-1.4s-0.6-0.4-1-0.4c-0.4,0-0.8,0.1-1,0.3s-0.4,0.5-0.5,0.9v3.1l0.8,0.1v0.4H482.2z"/>
    <path d="M491.9,294.7v-0.4l0.8-0.1v-4.3l-0.8-0.1v-0.4h1.3l0,0.9c0.2-0.3,0.4-0.6,0.7-0.7s0.6-0.3,1-0.3c0.4,0,0.7,0.1,1,0.3 s0.5,0.5,0.6,0.9c0.1-0.4,0.4-0.7,0.7-0.9s0.7-0.3,1.1-0.3c0.6,0,1,0.2,1.3,0.6s0.5,1,0.5,1.7v2.6l0.8,0.1v0.4h-2.2v-0.4l0.8-0.1 v-2.6c0-0.7-0.1-1.1-0.3-1.4s-0.5-0.4-1-0.4c-0.5,0-0.8,0.1-1.1,0.4s-0.4,0.7-0.4,1.1v2.9l0.8,0.1v0.4h-2.2v-0.4l0.8-0.1v-2.6 c0-0.6-0.1-1.1-0.3-1.4s-0.6-0.4-1-0.4c-0.4,0-0.8,0.1-1,0.3s-0.4,0.5-0.5,0.9v3.1l0.8,0.1v0.4H491.9z"/>
    <path d="M503.7,294.8c-0.6,0-1-0.2-1.3-0.6s-0.5-1-0.5-1.8v-2.6l-0.7-0.1v-0.4h0.7h0.6v3.1c0,0.6,0.1,1.1,0.3,1.4s0.5,0.4,0.9,0.4 c0.5,0,0.8-0.1,1.1-0.3s0.4-0.5,0.5-0.8v-3.2l-0.8-0.1v-0.4h0.8h0.6v4.8l0.7,0.1v0.4h-1.2l0-0.9c-0.2,0.3-0.4,0.5-0.7,0.7 S504.1,294.8,503.7,294.8z"/>
    <path d="M507.4,294.7v-0.4l0.8-0.1v-4.3l-0.8-0.1v-0.4h1.3l0,0.9c0.2-0.3,0.4-0.6,0.7-0.8s0.6-0.3,1-0.3c0.6,0,1,0.2,1.3,0.5 s0.4,0.9,0.4,1.6v2.7l0.8,0.1v0.4h-2.2v-0.4l0.8-0.1v-2.7c0-0.6-0.1-1-0.3-1.3s-0.5-0.4-1-0.4c-0.4,0-0.8,0.1-1,0.4s-0.4,0.6-0.5,1 v3.1l0.8,0.1v0.4H507.4z"/>
    <path d="M515.6,294.8c-0.5,0-0.9-0.1-1.2-0.4s-0.4-0.6-0.4-1.1c0-0.3,0.1-0.6,0.3-0.9s0.5-0.4,0.8-0.6s0.8-0.2,1.2-0.2h1.1V291 c0-0.4-0.1-0.7-0.3-0.9s-0.6-0.3-1-0.3c-0.3,0-0.5,0-0.7,0.1s-0.4,0.2-0.5,0.3l0,0.8h-0.5v-1.1c0.2-0.2,0.5-0.3,0.8-0.5 s0.6-0.2,1-0.2c0.6,0,1.1,0.2,1.4,0.5s0.5,0.7,0.5,1.3v2.5c0,0.1,0,0.2,0,0.3s0,0.2,0,0.3l0.6,0v0.4h-1.2c0-0.2-0.1-0.3-0.1-0.5 s0-0.2,0-0.4c-0.2,0.3-0.4,0.5-0.8,0.7S515.9,294.8,515.6,294.8z M515.6,294.3c0.4,0,0.7-0.1,1-0.3s0.6-0.4,0.7-0.8v-1.1h-1.1 c-0.5,0-1,0.1-1.3,0.3s-0.5,0.5-0.5,0.9c0,0.3,0.1,0.5,0.3,0.7S515.3,294.3,515.6,294.3z"/>
    <path d="M519.4,294.7v-0.4l0.8-0.1v-6.6l-0.8-0.1v-0.4h1.4v7.1l0.8,0.1v0.4H519.4z"/>
    <path d="M524.6,294.8c-0.5,0-0.9-0.1-1.2-0.3s-0.6-0.5-0.8-0.9s-0.3-0.8-0.3-1.3v-0.3c0-0.5,0.1-1,0.3-1.4s0.5-0.7,0.8-0.9 s0.7-0.3,1.1-0.3c0.4,0,0.8,0.1,1.1,0.3s0.5,0.4,0.7,0.8s0.2,0.7,0.2,1.2v0.5H523l0,0.2c0,0.4,0.1,0.7,0.2,1s0.3,0.5,0.6,0.7 s0.6,0.3,0.9,0.3c0.3,0,0.6-0.1,0.9-0.2s0.5-0.2,0.7-0.4l0.2,0.4c-0.2,0.2-0.5,0.4-0.7,0.5S525.1,294.8,524.6,294.8z M523,291.6h3 v-0.1c0-0.3-0.1-0.6-0.2-0.8s-0.3-0.4-0.5-0.6s-0.5-0.2-0.8-0.2c-0.3,0-0.5,0.1-0.8,0.2s-0.4,0.4-0.5,0.6S523,291.2,523,291.6 L523,291.6z"/>
    <path d="M529.9,294.7v-0.4l0.8-0.1v-6.1l-0.8-0.1v-0.4h2.2v0.4l-0.8,0.1v6.1l0.8,0.1v0.4H529.9z"/>
    <path d="M534.6,294.7v-0.4l0.8-0.1V288h-2l-0.1,1.1h-0.5v-1.6h5.7v1.6h-0.5L538,288h-2v6.1l0.8,0.1v0.4H534.6z"/>
    <path d="M538.6,291.9v-0.5h2.3v0.5H538.6z"/>
    <path d="M547,294.8c-0.5,0-0.9-0.1-1.2-0.3s-0.6-0.5-0.8-0.9s-0.3-0.9-0.3-1.4V292c0-0.5,0.1-1,0.3-1.4s0.5-0.7,0.8-0.9 s0.8-0.3,1.2-0.3c0.5,0,0.9,0.1,1.2,0.3s0.6,0.5,0.8,0.9s0.3,0.9,0.3,1.4v0.2c0,0.5-0.1,1-0.3,1.4s-0.5,0.7-0.8,0.9 S547.4,294.8,547,294.8z M547,294.3c0.4,0,0.7-0.1,0.9-0.3s0.5-0.5,0.6-0.8s0.2-0.7,0.2-1.1V292c0-0.4-0.1-0.8-0.2-1.1 s-0.3-0.6-0.6-0.8s-0.6-0.3-0.9-0.3s-0.7,0.1-0.9,0.3s-0.5,0.5-0.6,0.8s-0.2,0.7-0.2,1.1v0.2c0,0.4,0.1,0.8,0.2,1.1 s0.3,0.6,0.6,0.8S546.6,294.3,547,294.3z"/>
    <path d="M552.4,296.8c-0.3,0-0.5,0-0.8-0.1s-0.5-0.1-0.8-0.2l0.2-0.5c0.2,0.1,0.4,0.2,0.7,0.2s0.5,0.1,0.7,0.1 c0.5,0,0.9-0.1,1.1-0.4s0.4-0.7,0.4-1.2V294c-0.2,0.3-0.4,0.5-0.7,0.6s-0.6,0.2-1,0.2c-0.4,0-0.8-0.1-1.1-0.3s-0.5-0.5-0.7-0.9 s-0.2-0.8-0.2-1.4v-0.1c0-0.6,0.1-1.1,0.2-1.5s0.4-0.7,0.7-1s0.7-0.3,1.1-0.3c0.4,0,0.7,0.1,1,0.2s0.5,0.4,0.7,0.7l0.1-0.8h0.5v5.2 c0,0.5-0.1,0.8-0.2,1.2s-0.4,0.6-0.7,0.8S552.9,296.8,552.4,296.8z M552.4,294.3c0.4,0,0.7-0.1,1-0.3s0.4-0.4,0.6-0.7v-2.4 c-0.1-0.3-0.3-0.6-0.5-0.8s-0.6-0.3-1-0.3c-0.3,0-0.6,0.1-0.9,0.3s-0.4,0.5-0.5,0.8s-0.2,0.7-0.2,1.2v0.1c0,0.6,0.1,1.1,0.4,1.5 S551.9,294.3,552.4,294.3z M554.4,289.9l-0.2-0.5h1v0.4L554.4,289.9z"/>
    <path d="M469.8,306.7v-0.4l0.8-0.1v-6.1l-0.8-0.1v-0.4h0.8h2c0.6,0,1.1,0.2,1.6,0.5s0.8,0.7,1.1,1.2s0.4,1.1,0.4,1.8v0.1 c0,0.7-0.1,1.3-0.4,1.8s-0.6,0.9-1.1,1.2s-1,0.5-1.6,0.5H469.8z M471.2,306.2h1.4c0.5,0,0.9-0.1,1.3-0.4s0.7-0.6,0.9-1.1 s0.3-1,0.3-1.5V303c0-0.6-0.1-1.1-0.3-1.5s-0.5-0.8-0.9-1.1s-0.8-0.4-1.3-0.4h-1.4V306.2z"/>
    <path d="M476.5,306.7v-0.4l0.8-0.1v-4.3l-0.8-0.1v-0.4h1.4v4.8l0.8,0.1v0.4H476.5z M477.3,299.9v-0.8h0.7v0.8H477.3z"/>
    <path d="M481.8,308.8c-0.3,0-0.5,0-0.8-0.1s-0.5-0.1-0.8-0.2l0.2-0.5c0.2,0.1,0.4,0.2,0.7,0.2s0.5,0.1,0.7,0.1 c0.5,0,0.9-0.1,1.1-0.4s0.4-0.7,0.4-1.2V306c-0.2,0.3-0.4,0.5-0.7,0.6s-0.6,0.2-1,0.2c-0.4,0-0.8-0.1-1.1-0.3s-0.5-0.5-0.7-0.9 s-0.2-0.8-0.2-1.4v-0.1c0-0.6,0.1-1.1,0.2-1.5s0.4-0.7,0.7-1s0.7-0.3,1.1-0.3c0.4,0,0.7,0.1,1,0.2s0.5,0.4,0.7,0.7l0.1-0.8h0.5v5.2 c0,0.5-0.1,0.8-0.2,1.2s-0.4,0.6-0.7,0.8S482.3,308.8,481.8,308.8z M481.8,306.3c0.4,0,0.7-0.1,1-0.3s0.4-0.4,0.6-0.7v-2.4 c-0.1-0.3-0.3-0.6-0.5-0.8s-0.6-0.3-1-0.3c-0.3,0-0.6,0.1-0.9,0.3s-0.4,0.5-0.5,0.8s-0.2,0.7-0.2,1.2v0.1c0,0.6,0.1,1.1,0.4,1.5 S481.3,306.3,481.8,306.3z M483.8,301.9l-0.2-0.5h1v0.4L483.8,301.9z"/>
    <path d="M485.3,306.7v-0.4l0.8-0.1v-4.3l-0.8-0.1v-0.4h1.4v4.8l0.8,0.1v0.4H485.3z M486,299.9v-0.8h0.7v0.8H486z"/>
    <path d="M490.2,306.8c-0.4,0-0.7-0.1-0.9-0.3s-0.3-0.6-0.3-1.1v-3.4h-0.9v-0.5h0.9V300h0.6v1.4h1.2v0.5h-1.2v3.4 c0,0.4,0.1,0.6,0.2,0.8s0.3,0.2,0.5,0.2c0.1,0,0.2,0,0.3,0s0.2,0,0.3,0l0.1,0.4c-0.1,0-0.3,0.1-0.4,0.1S490.4,306.8,490.2,306.8z"/>
    <path d="M493.5,306.8c-0.5,0-0.9-0.1-1.2-0.4s-0.4-0.6-0.4-1.1c0-0.3,0.1-0.6,0.3-0.9s0.5-0.4,0.8-0.6s0.8-0.2,1.2-0.2h1.1V303 c0-0.4-0.1-0.7-0.3-0.9s-0.6-0.3-1-0.3c-0.3,0-0.5,0-0.7,0.1s-0.4,0.2-0.5,0.3l0,0.8h-0.5v-1.1c0.2-0.2,0.5-0.3,0.8-0.5 s0.6-0.2,1-0.2c0.6,0,1.1,0.2,1.4,0.5s0.5,0.7,0.5,1.3v2.5c0,0.1,0,0.2,0,0.3s0,0.2,0,0.3l0.6,0v0.4h-1.2c0-0.2-0.1-0.3-0.1-0.5 s0-0.2,0-0.4c-0.2,0.3-0.4,0.5-0.8,0.7S493.9,306.8,493.5,306.8z M493.6,306.3c0.4,0,0.7-0.1,1-0.3s0.6-0.4,0.7-0.8v-1.1h-1.1 c-0.5,0-1,0.1-1.3,0.3s-0.5,0.5-0.5,0.9c0,0.3,0.1,0.5,0.3,0.7S493.3,306.3,493.6,306.3z"/>
    <path d="M497.3,306.7v-0.4l0.8-0.1v-6.6l-0.8-0.1v-0.4h1.4v7.1l0.8,0.1v0.4H497.3z"/>
    <path d="M500.3,306.7v-0.4l0.8-0.1v-4.3l-0.8-0.1v-0.4h1.4v4.8l0.8,0.1v0.4H500.3z M501.1,299.9v-0.8h0.7v0.8H501.1z"/>
    <path d="M505.5,306.8c-0.4,0-0.7,0-1-0.1s-0.6-0.2-0.9-0.4l0-1.1h0.5l0.1,0.8c0.2,0.1,0.4,0.3,0.6,0.3s0.5,0.1,0.7,0.1 c0.4,0,0.8-0.1,1-0.3s0.3-0.4,0.3-0.7c0-0.2-0.1-0.5-0.3-0.7s-0.6-0.3-1.1-0.5c-0.6-0.1-1.1-0.3-1.4-0.5s-0.4-0.5-0.4-1 c0-0.3,0.1-0.5,0.2-0.7s0.4-0.4,0.6-0.5s0.6-0.2,1-0.2c0.4,0,0.7,0.1,1,0.2s0.5,0.3,0.7,0.5l0,1.1h-0.5l-0.1-0.8 c-0.1-0.1-0.3-0.2-0.5-0.3s-0.4-0.1-0.7-0.1c-0.4,0-0.7,0.1-0.9,0.3s-0.3,0.4-0.3,0.6c0,0.2,0,0.3,0.1,0.4s0.2,0.2,0.4,0.3 s0.5,0.2,0.8,0.3c0.7,0.1,1.1,0.4,1.4,0.6s0.4,0.6,0.4,1c0,0.4-0.2,0.8-0.5,1.1S506.1,306.8,505.5,306.8z"/>
    <path d="M510.7,306.8c-0.5,0-0.9-0.1-1.2-0.3s-0.6-0.5-0.8-0.9s-0.3-0.8-0.3-1.3v-0.3c0-0.5,0.1-1,0.3-1.4s0.5-0.7,0.8-0.9 s0.7-0.3,1.1-0.3c0.4,0,0.8,0.1,1.1,0.3s0.5,0.4,0.7,0.8s0.2,0.7,0.2,1.2v0.5H509l0,0.2c0,0.4,0.1,0.7,0.2,1s0.3,0.5,0.6,0.7 s0.6,0.3,0.9,0.3c0.3,0,0.6-0.1,0.9-0.2s0.5-0.2,0.7-0.4l0.2,0.4c-0.2,0.2-0.5,0.4-0.7,0.5S511.1,306.8,510.7,306.8z M509.1,303.6 h3v-0.1c0-0.3-0.1-0.6-0.2-0.8s-0.3-0.4-0.5-0.6s-0.5-0.2-0.8-0.2c-0.3,0-0.5,0.1-0.8,0.2s-0.4,0.4-0.5,0.6 S509.1,303.2,509.1,303.6L509.1,303.6z"/>
    <path d="M513.6,306.7v-0.4l0.8-0.1v-4.3l-0.8-0.1v-0.4h1.3l0.1,0.8l0,0.1c0.1-0.3,0.4-0.6,0.6-0.8s0.6-0.3,0.9-0.3 c0.1,0,0.2,0,0.3,0s0.2,0,0.2,0l-0.1,0.5l-0.5,0c-0.4,0-0.7,0.1-0.9,0.3s-0.4,0.5-0.5,0.9v3.1l0.8,0.1v0.4H513.6z"/>
    <path d="M517.7,306.7v-0.4l0.8-0.1v-4.3l-0.8-0.1v-0.4h1.4v4.8l0.8,0.1v0.4H517.7z M518.4,299.9v-0.8h0.7v0.8H518.4z"/>
    <path d="M520.8,306.7v-0.4l0.8-0.1v-4.3l-0.8-0.1v-0.4h1.3l0,0.9c0.2-0.3,0.4-0.6,0.7-0.8s0.6-0.3,1-0.3c0.6,0,1,0.2,1.3,0.5 s0.4,0.9,0.4,1.6v2.7l0.8,0.1v0.4h-2.2v-0.4l0.8-0.1v-2.7c0-0.6-0.1-1-0.3-1.3s-0.5-0.4-1-0.4c-0.4,0-0.8,0.1-1,0.4s-0.4,0.6-0.5,1 v3.1l0.8,0.1v0.4H520.8z"/>
    <path d="M529.4,308.8c-0.3,0-0.5,0-0.8-0.1s-0.5-0.1-0.8-0.2l0.2-0.5c0.2,0.1,0.4,0.2,0.7,0.2s0.5,0.1,0.7,0.1 c0.5,0,0.9-0.1,1.1-0.4s0.4-0.7,0.4-1.2V306c-0.2,0.3-0.4,0.5-0.7,0.6s-0.6,0.2-1,0.2c-0.4,0-0.8-0.1-1.1-0.3s-0.5-0.5-0.7-0.9 s-0.2-0.8-0.2-1.4v-0.1c0-0.6,0.1-1.1,0.2-1.5s0.4-0.7,0.7-1s0.7-0.3,1.1-0.3c0.4,0,0.7,0.1,1,0.2s0.5,0.4,0.7,0.7l0.1-0.8h0.5v5.2 c0,0.5-0.1,0.8-0.2,1.2s-0.4,0.6-0.7,0.8S529.9,308.8,529.4,308.8z M529.4,306.3c0.4,0,0.7-0.1,1-0.3s0.4-0.4,0.6-0.7v-2.4 c-0.1-0.3-0.3-0.6-0.5-0.8s-0.6-0.3-1-0.3c-0.3,0-0.6,0.1-0.9,0.3s-0.4,0.5-0.5,0.8s-0.2,0.7-0.2,1.2v0.1c0,0.6,0.1,1.1,0.4,1.5 S528.9,306.3,529.4,306.3z M531.4,301.9l-0.2-0.5h1v0.4L531.4,301.9z"/>
    <path d="M534.9,306.8c-0.4,0-0.7,0-1-0.1s-0.6-0.2-0.9-0.4l0-1.1h0.5l0.1,0.8c0.2,0.1,0.4,0.3,0.6,0.3s0.5,0.1,0.7,0.1 c0.4,0,0.8-0.1,1-0.3s0.3-0.4,0.3-0.7c0-0.2-0.1-0.5-0.3-0.7s-0.6-0.3-1.1-0.5c-0.6-0.1-1.1-0.3-1.4-0.5s-0.4-0.5-0.4-1 c0-0.3,0.1-0.5,0.2-0.7s0.4-0.4,0.6-0.5s0.6-0.2,1-0.2c0.4,0,0.7,0.1,1,0.2s0.5,0.3,0.7,0.5l0,1.1h-0.5l-0.1-0.8 c-0.1-0.1-0.3-0.2-0.5-0.3s-0.4-0.1-0.7-0.1c-0.4,0-0.7,0.1-0.9,0.3s-0.3,0.4-0.3,0.6c0,0.2,0,0.3,0.1,0.4s0.2,0.2,0.4,0.3 s0.5,0.2,0.8,0.3c0.7,0.1,1.1,0.4,1.4,0.6s0.4,0.6,0.4,1c0,0.4-0.2,0.8-0.5,1.1S535.5,306.8,534.9,306.8z"/>
    <path d="M539.5,306.8c-0.5,0-0.9-0.1-1.2-0.4s-0.4-0.6-0.4-1.1c0-0.3,0.1-0.6,0.3-0.9s0.5-0.4,0.8-0.6s0.8-0.2,1.2-0.2h1.1V303 c0-0.4-0.1-0.7-0.3-0.9s-0.6-0.3-1-0.3c-0.3,0-0.5,0-0.7,0.1s-0.4,0.2-0.5,0.3l0,0.8h-0.5v-1.1c0.2-0.2,0.5-0.3,0.8-0.5 s0.6-0.2,1-0.2c0.6,0,1.1,0.2,1.4,0.5s0.5,0.7,0.5,1.3v2.5c0,0.1,0,0.2,0,0.3s0,0.2,0,0.3l0.6,0v0.4h-1.2c0-0.2-0.1-0.3-0.1-0.5 s0-0.2,0-0.4c-0.2,0.3-0.4,0.5-0.8,0.7S539.9,306.8,539.5,306.8z M539.5,306.3c0.4,0,0.7-0.1,1-0.3s0.6-0.4,0.7-0.8v-1.1h-1.1 c-0.5,0-1,0.1-1.3,0.3s-0.5,0.5-0.5,0.9c0,0.3,0.1,0.5,0.3,0.7S539.2,306.3,539.5,306.3z"/>
    <path d="M543.3,306.7v-0.4l0.8-0.1v-4.3l-0.8-0.1v-0.4h1.3l0,0.9c0.2-0.3,0.4-0.6,0.7-0.8s0.6-0.3,1-0.3c0.6,0,1,0.2,1.3,0.5 s0.4,0.9,0.4,1.6v2.7l0.8,0.1v0.4h-2.2v-0.4l0.8-0.1v-2.7c0-0.6-0.1-1-0.3-1.3s-0.5-0.4-1-0.4c-0.4,0-0.8,0.1-1,0.4s-0.4,0.6-0.5,1 v3.1l0.8,0.1v0.4H543.3z"/>
    <path d="M551.8,306.8c-0.4,0-0.7,0-1-0.1s-0.6-0.2-0.9-0.4l0-1.1h0.5l0.1,0.8c0.2,0.1,0.4,0.3,0.6,0.3s0.5,0.1,0.7,0.1 c0.4,0,0.8-0.1,1-0.3s0.3-0.4,0.3-0.7c0-0.2-0.1-0.5-0.3-0.7s-0.6-0.3-1.1-0.5c-0.6-0.1-1.1-0.3-1.4-0.5s-0.4-0.5-0.4-1 c0-0.3,0.1-0.5,0.2-0.7s0.4-0.4,0.6-0.5s0.6-0.2,1-0.2c0.4,0,0.7,0.1,1,0.2s0.5,0.3,0.7,0.5l0,1.1h-0.5l-0.1-0.8 c-0.1-0.1-0.3-0.2-0.5-0.3s-0.4-0.1-0.7-0.1c-0.4,0-0.7,0.1-0.9,0.3s-0.3,0.4-0.3,0.6c0,0.2,0,0.3,0.1,0.4s0.2,0.2,0.4,0.3 s0.5,0.2,0.8,0.3c0.7,0.1,1.1,0.4,1.4,0.6s0.4,0.6,0.4,1c0,0.4-0.2,0.8-0.5,1.1S552.5,306.8,551.8,306.8z"/>
    <path d="M557,306.7l-1.9-4.8l-0.6,0v-0.4h1.9v0.4l-0.7,0l1.4,3.5l0.2,0.6h0l0.2-0.6l1.3-3.5l-0.7,0v-0.4h1.9v0.4l-0.6,0l-1.9,4.8 H557z"/>
    <path d="M562.1,306.8c-0.5,0-0.9-0.1-1.2-0.4s-0.4-0.6-0.4-1.1c0-0.3,0.1-0.6,0.3-0.9s0.5-0.4,0.8-0.6s0.8-0.2,1.2-0.2h1.1V303 c0-0.4-0.1-0.7-0.3-0.9s-0.6-0.3-1-0.3c-0.3,0-0.5,0-0.7,0.1s-0.4,0.2-0.5,0.3l0,0.8h-0.5v-1.1c0.2-0.2,0.5-0.3,0.8-0.5 s0.6-0.2,1-0.2c0.6,0,1.1,0.2,1.4,0.5s0.5,0.7,0.5,1.3v2.5c0,0.1,0,0.2,0,0.3s0,0.2,0,0.3l0.6,0v0.4H564c0-0.2-0.1-0.3-0.1-0.5 s0-0.2,0-0.4c-0.2,0.3-0.4,0.5-0.8,0.7S562.5,306.8,562.1,306.8z M562.2,306.3c0.4,0,0.7-0.1,1-0.3s0.6-0.4,0.7-0.8v-1.1h-1.1 c-0.5,0-1,0.1-1.3,0.3s-0.5,0.5-0.5,0.9c0,0.3,0.1,0.5,0.3,0.7S561.9,306.3,562.2,306.3z"/>
    <path d="M565.9,306.7v-0.4l0.8-0.1v-4.3l-0.8-0.1v-0.4h1.3l0.1,0.8l0,0.1c0.1-0.3,0.4-0.6,0.6-0.8s0.6-0.3,0.9-0.3 c0.1,0,0.2,0,0.3,0s0.2,0,0.2,0l-0.1,0.5l-0.5,0c-0.4,0-0.7,0.1-0.9,0.3s-0.4,0.5-0.5,0.9v3.1l0.8,0.1v0.4H565.9z"/>
    <path d="M569.9,306.7v-0.4l0.8-0.1v-6.6l-0.8-0.1v-0.4h1.4v7.1l0.8,0.1v0.4H569.9z"/>
    <path d="M572.9,306.7v-0.4l0.8-0.1v-4.3l-0.8-0.1v-0.4h1.4v4.8l0.8,0.1v0.4H572.9z M573.7,299.9v-0.8h0.7v0.8H573.7z"/>
    <path d="M578.2,308.8c-0.3,0-0.5,0-0.8-0.1s-0.5-0.1-0.8-0.2l0.2-0.5c0.2,0.1,0.4,0.2,0.7,0.2s0.5,0.1,0.7,0.1 c0.5,0,0.9-0.1,1.1-0.4s0.4-0.7,0.4-1.2V306c-0.2,0.3-0.4,0.5-0.7,0.6s-0.6,0.2-1,0.2c-0.4,0-0.8-0.1-1.1-0.3s-0.5-0.5-0.7-0.9 s-0.2-0.8-0.2-1.4v-0.1c0-0.6,0.1-1.1,0.2-1.5s0.4-0.7,0.7-1s0.7-0.3,1.1-0.3c0.4,0,0.7,0.1,1,0.2s0.5,0.4,0.7,0.7l0.1-0.8h0.5v5.2 c0,0.5-0.1,0.8-0.2,1.2s-0.4,0.6-0.7,0.8S578.7,308.8,578.2,308.8z M578.2,306.3c0.4,0,0.7-0.1,1-0.3s0.4-0.4,0.6-0.7v-2.4 c-0.1-0.3-0.3-0.6-0.5-0.8s-0.6-0.3-1-0.3c-0.3,0-0.6,0.1-0.9,0.3s-0.4,0.5-0.5,0.8s-0.2,0.7-0.2,1.2v0.1c0,0.6,0.1,1.1,0.4,1.5 S577.7,306.3,578.2,306.3z M580.2,301.9l-0.2-0.5h1v0.4L580.2,301.9z"/>
    <path d="M584,306.8c-0.5,0-0.9-0.1-1.2-0.3s-0.6-0.5-0.8-0.9s-0.3-0.8-0.3-1.3v-0.3c0-0.5,0.1-1,0.3-1.4s0.5-0.7,0.8-0.9 s0.7-0.3,1.1-0.3c0.4,0,0.8,0.1,1.1,0.3s0.5,0.4,0.7,0.8s0.2,0.7,0.2,1.2v0.5h-3.7l0,0.2c0,0.4,0.1,0.7,0.2,1s0.3,0.5,0.6,0.7 s0.6,0.3,0.9,0.3c0.3,0,0.6-0.1,0.9-0.2s0.5-0.2,0.7-0.4l0.2,0.4c-0.2,0.2-0.5,0.4-0.7,0.5S584.4,306.8,584,306.8z M582.4,303.6h3 v-0.1c0-0.3-0.1-0.6-0.2-0.8s-0.3-0.4-0.5-0.6s-0.5-0.2-0.8-0.2c-0.3,0-0.5,0.1-0.8,0.2s-0.4,0.4-0.5,0.6S582.4,303.2,582.4,303.6 L582.4,303.6z"/>
  </g>
</svg>